<svg xmlns="http://www.w3.org/2000/svg" viewBox="0 0 200 120" width="200" height="120">
  <!-- Mesa de Pool / Billar -->
  <defs>
    <linearGradient id="poolGreen" x1="0%" y1="0%" x2="0%" y2="100%">
      <stop offset="0%" style="stop-color:#228B22"/>
      <stop offset="100%" style="stop-color:#006400"/>
    </linearGradient>
    <radialGradient id="pocket" cx="50%" cy="50%" r="50%">
      <stop offset="0%" style="stop-color:#1A1A1A"/>
      <stop offset="100%" style="stop-color:#000"/>
    </radialGradient>
  </defs>
  <!-- Marco de madera exterior -->
  <rect x="3" y="3" width="194" height="114" rx="5" fill="#4A2C2A" stroke="#2F1810" stroke-width="2"/>
  <!-- Superficie verde del paño -->
  <rect x="15" y="15" width="170" height="90" rx="2" fill="url(#poolGreen)"/>
  <!-- Troneras (bolsillos) -->
  <circle cx="18" cy="18" r="8" fill="url(#pocket)"/>
  <circle cx="100" cy="14" r="7" fill="url(#pocket)"/>
  <circle cx="182" cy="18" r="8" fill="url(#pocket)"/>
  <circle cx="18" cy="102" r="8" fill="url(#pocket)"/>
  <circle cx="100" cy="106" r="7" fill="url(#pocket)"/>
  <circle cx="182" cy="102" r="8" fill="url(#pocket)"/>
  <!-- Diamantes de referencia (puntos en el riel) -->
  <circle cx="50" cy="10" r="2" fill="#C9A227"/>
  <circle cx="80" cy="10" r="2" fill="#C9A227"/>
  <circle cx="120" cy="10" r="2" fill="#C9A227"/>
  <circle cx="150" cy="10" r="2" fill="#C9A227"/>
  <circle cx="50" cy="110" r="2" fill="#C9A227"/>
  <circle cx="80" cy="110" r="2" fill="#C9A227"/>
  <circle cx="120" cy="110" r="2" fill="#C9A227"/>
  <circle cx="150" cy="110" r="2" fill="#C9A227"/>
  <!-- Bolas decorativas -->
  <circle cx="60" cy="60" r="5" fill="#FFD700" stroke="#CC9900" stroke-width="1"/>
  <circle cx="75" cy="55" r="5" fill="#FF0000" stroke="#CC0000" stroke-width="1"/>
  <circle cx="75" cy="65" r="5" fill="#0000FF" stroke="#0000CC" stroke-width="1"/>
  <circle cx="145" cy="60" r="5" fill="white" stroke="#DDD" stroke-width="1"/>
</svg>