<svg xmlns="http://www.w3.org/2000/svg" viewBox="0 0 200 200" width="200" height="200">
  <!-- Sala privada / Box -->
  <defs>
    <linearGradient id="velvet" x1="0%" y1="0%" x2="0%" y2="100%">
      <stop offset="0%" style="stop-color:#722F37"/>
      <stop offset="100%" style="stop-color:#4A1C24"/>
    </linearGradient>
    <pattern id="carpet" patternUnits="userSpaceOnUse" width="20" height="20">
      <rect width="20" height="20" fill="#2C1810"/>
      <circle cx="10" cy="10" r="5" fill="#3A2420" opacity="0.5"/>
    </pattern>
  </defs>
  <!-- Piso alfombrado -->
  <rect x="5" y="5" width="190" height="190" rx="10" fill="url(#carpet)"/>
  <!-- Borde dorado -->
  <rect x="5" y="5" width="190" height="190" rx="10" fill="none" stroke="#C9A227" stroke-width="4"/>
  <!-- Sofá en forma de U -->
  <path d="M 25 40 L 25 170 L 175 170 L 175 40 L 155 40 L 155 150 L 45 150 L 45 40 Z" fill="url(#velvet)" stroke="#5C2A30" stroke-width="2"/>
  <!-- Cojines del sofá -->
  <ellipse cx="35" cy="80" rx="8" ry="15" fill="#8B3A42"/>
  <ellipse cx="35" cy="120" rx="8" ry="15" fill="#8B3A42"/>
  <ellipse cx="165" cy="80" rx="8" ry="15" fill="#8B3A42"/>
  <ellipse cx="165" cy="120" rx="8" ry="15" fill="#8B3A42"/>
  <!-- Mesa central -->
  <rect x="70" y="80" width="60" height="50" rx="5" fill="#1A1A1A" stroke="#333" stroke-width="2"/>
  <!-- Brillo en la mesa -->
  <ellipse cx="100" cy="95" rx="20" ry="8" fill="#2A2A2A"/>
  <!-- Lámpara colgante -->
  <circle cx="100" cy="20" r="12" fill="#FFD700" opacity="0.3"/>
  <text x="92" y="28" font-size="20">💡</text>
</svg>